<?xml version="1.0" standalone="no"?><!DOCTYPE svg PUBLIC "-//W3C//DTD SVG 1.1//EN" "http://www.w3.org/Graphics/SVG/1.1/DTD/svg11.dtd"><svg t="1533872911518" class="icon" style="" viewBox="0 0 1024 1024" version="1.1" xmlns="http://www.w3.org/2000/svg" p-id="2169" xmlns:xlink="http://www.w3.org/1999/xlink" width="200" height="200"><defs><style type="text/css"></style></defs><path d="M451.53430187 887.898112h-281.509888c-17.51668053 0-31.28142507-14.39061333-31.28142507-31.28142507V168.47557973c0-17.51668053 13.76474453-31.28142507 31.28142507-31.28142506H795.60704c16.89081173 0 31.27596373 13.76474453 31.27596373 31.28142506v281.509888c0 17.2785664 14.00832 31.28142507 31.28142507 31.28142507s31.28142507-14.00395093 31.28142507-31.28142507v-312.79240533c0-34.40749227-28.15535787-62.5573888-62.56285014-62.5573888H138.74189653c-34.40749227 0-62.5573888 28.14989653-62.5573888 62.5573888v750.70395733c0 34.40749227 28.14989653 62.5573888 62.5573888 62.5573888h312.79240534c17.2785664 0 31.28142507-14.00395093 31.28142506-31.28142506 0-17.27092053-14.00395093-31.27487147-31.28142506-31.27487147z m485.95490133 5.6885248l-81.32471467-81.32471467c-6.25759573-6.25759573-12.5140992-6.25759573-18.77169493-6.25759573-18.7662336 0-31.277056 12.5140992-31.277056 31.28142507 0 6.25759573 0 12.50973013 6.25759573 18.7662336l81.32471467 81.32471466c6.25650347 6.25759573 12.50973013 12.5140992 25.02382933 12.5140992 18.76732587 0 31.277056-12.5140992 31.277056-31.28142506-0.00109227-6.25104213-6.25322667-18.76514133-12.50973013-25.02273707z m0 0" p-id="2170"></path><path d="M693.05849173 511.16878507c-103.6517376 0-187.6721664 84.02589013-187.6721664 187.67762773 0 103.64627627 84.02152107 187.6721664 187.6721664 187.6721664 103.6517376 0 187.67653547-84.02589013 187.67653547-187.6721664 0-103.6517376-84.02479787-187.67762773-187.67653547-187.67762773z m0 312.79131306c-45.35637333 1.02673067-87.7101056-22.57933653-110.6968576-61.69340586-22.98565973-39.1118848-22.9998592-87.605248-0.032768-126.7269632 22.9670912-39.12389973 65.31099307-62.7539968 110.6673664-61.75238827 67.99469227 1.5040512 122.33168213 57.0458112 122.35134294 125.05797973 0.01529173 68.00889173-54.29548373 123.57905067-122.28908374 125.1147776z m31.72051627-499.71418453H223.3073664c-16.98146987-0.032768-30.74184533-13.79314347-30.7789824-30.7789824v-1.0027008c0-16.95307093 13.82591147-30.77461333 30.7789824-30.77461333h501.4716416c16.95307093 0 30.77461333 13.8215424 30.77461333 30.77461333v1.0027008c0 16.89081173-13.88926293 30.7789824-30.77461333 30.7789824z m-2.0054016 125.11586987H221.36968533c-16.98583893-0.03386027-30.7462144-13.79423573-30.7789824-30.78116694v-0.99723946c0-16.95307093 13.82591147-30.78116693 30.7789824-30.78116694h501.46618027c16.95307093 0 30.78007467 13.828096 30.78007467 30.78116694v0.99723946c0 16.89081173-13.88926293 30.78116693-30.84233387 30.78116694zM411.60977067 574.16526507H222.99716267c-16.98583893-0.032768-30.7462144-13.79314347-30.7789824-30.7789824v-0.99833174c0-16.95853227 13.82591147-30.7789824 30.7789824-30.7789824h188.612608c16.95307093 0 30.78116693 13.8215424 30.78116693 30.7789824v0.99833174c-0.04041387 16.98583893-13.79969707 30.7462144-30.78116693 30.7789824z m0 0" p-id="2171"></path></svg>